<svg xmlns="http://www.w3.org/2000/svg" viewBox="0 0 1200 630" fill="none">
  <rect width="1200" height="630" fill="#0a0a0a"/>
  <rect x="200" y="160" width="800" height="320" rx="20" stroke="rgba(255,255,255,0.04)" stroke-width="1" fill="rgba(255,255,255,0.01)"/>
  <rect x="240" y="200" width="320" height="240" rx="12" stroke="rgba(224,48,78,0.1)" stroke-width="1" fill="rgba(224,48,78,0.02)"/>
  <circle cx="400" cy="320" r="50" fill="none" stroke="rgba(224,48,78,0.1)" stroke-width="1"/>
  <circle cx="400" cy="320" r="30" fill="none" stroke="rgba(224,48,78,0.08)" stroke-width="1"/>
  <circle cx="400" cy="320" r="12" fill="rgba(224,48,78,0.12)"/>
  <rect x="260" y="380" width="280" height="4" rx="2" fill="rgba(224,48,78,0.06)"/>
  <rect x="260" y="390" width="200" height="4" rx="2" fill="rgba(224,48,78,0.04)"/>
  <rect x="640" y="200" width="320" height="240" rx="12" stroke="rgba(100,47,127,0.1)" stroke-width="1" fill="rgba(100,47,127,0.02)"/>
  <circle cx="800" cy="320" r="50" fill="none" stroke="rgba(100,47,127,0.1)" stroke-width="1"/>
  <circle cx="800" cy="320" r="30" fill="none" stroke="rgba(100,47,127,0.08)" stroke-width="1"/>
  <circle cx="800" cy="320" r="12" fill="rgba(100,47,127,0.12)"/>
  <rect x="660" y="380" width="280" height="4" rx="2" fill="rgba(100,47,127,0.06)"/>
  <rect x="660" y="390" width="200" height="4" rx="2" fill="rgba(100,47,127,0.04)"/>
  <path d="M560 320l80 40M560 320l80-40" stroke="rgba(224,48,78,0.08)" stroke-width="1"/>
  <path d="M570 200l30-30M570 520l30 30" stroke="rgba(255,255,255,0.04)" stroke-width="1"/>
  <text x="600" y="610" text-anchor="middle" font-family="system-ui" font-size="13" fill="rgba(255,255,255,0.15)">AI Design Revolution</text>
</svg>
