<svg xmlns="http://www.w3.org/2000/svg" viewBox="0 0 1200 630" fill="none">
  <rect width="1200" height="630" fill="#0a0a0a"/>
  <rect x="250" y="200" width="700" height="260" rx="16" stroke="rgba(255,255,255,0.06)" stroke-width="1" fill="rgba(255,255,255,0.02)"/>
  <rect x="280" y="230" width="160" height="200" rx="8" stroke="rgba(224,48,78,0.12)" stroke-width="1.5" fill="rgba(224,48,78,0.03)"/>
  <rect x="300" y="250" width="120" height="90" rx="6" fill="rgba(224,48,78,0.06)"/>
  <path d="M300 295c0-10 10-18 22-22l48 12 48-12c12 4 22 12 22 22v70c0 6-4 10-10 10H310c-6 0-10-4-10-10v-70z" stroke="rgba(224,48,78,0.2)" stroke-width="1" fill="none"/>
  <path d="M320 310v-10a20 20 0 0130-20h10a20 20 0 0130 20v10" stroke="rgba(224,48,78,0.25)" stroke-width="1.5" fill="none" stroke-linecap="round"/>
  <circle cx="360" cy="310" r="4" fill="rgba(224,48,78,0.2)"/>
  <rect x="475" y="230" width="160" height="200" rx="8" stroke="rgba(100,47,127,0.12)" stroke-width="1.5" fill="rgba(100,47,127,0.03)"/>
  <rect x="495" y="250" width="120" height="90" rx="6" fill="rgba(100,47,127,0.06)"/>
  <circle cx="555" cy="295" r="30" fill="none" stroke="rgba(100,47,127,0.15)" stroke-width="1"/>
  <circle cx="555" cy="295" r="15" fill="rgba(100,47,127,0.1)"/>
  <circle cx="555" cy="295" r="6" fill="rgba(100,47,127,0.3)"/>
  <rect x="670" y="230" width="160" height="200" rx="8" stroke="rgba(224,48,78,0.12)" stroke-width="1.5" fill="rgba(224,48,78,0.03)"/>
  <rect x="690" y="250" width="120" height="90" rx="6" fill="rgba(224,48,78,0.06)"/>
  <rect x="710" y="270" width="80" height="8" rx="4" fill="rgba(224,48,78,0.1)"/>
  <rect x="710" y="290" width="60" height="8" rx="4" fill="rgba(224,48,78,0.08)"/>
  <rect x="710" y="310" width="70" height="8" rx="4" fill="rgba(224,48,78,0.06)"/>
  <line x1="280" y1="460" x2="360" y2="480" stroke="rgba(224,48,78,0.08)" stroke-width="1"/>
  <line x1="475" y1="460" x2="475" y2="480" stroke="rgba(100,47,127,0.08)" stroke-width="1"/>
  <line x1="670" y1="460" x2="670" y2="480" stroke="rgba(224,48,78,0.08)" stroke-width="1"/>
  <text x="600" y="610" text-anchor="middle" font-family="system-ui" font-size="13" fill="rgba(255,255,255,0.15)">AI for E-Commerce</text>
</svg>
