<svg xmlns="http://www.w3.org/2000/svg" viewBox="0 0 1200 630" fill="none">
  <rect width="1200" height="630" fill="#0a0a0a"/>
  <path d="M400 250 Q450 200 500 230 Q550 260 560 300 Q570 340 540 370 Q510 400 480 390 Q450 380 440 350 Q430 320 400 300 Q370 280 400 250Z" stroke="rgba(224,48,78,0.15)" stroke-width="1" fill="rgba(224,48,78,0.03)"/>
  <circle cx="470" cy="290" r="5" fill="#e0304e" opacity="0.8"/>
  <circle cx="450" cy="320" r="4" fill="#e0304e" opacity="0.6"/>
  <circle cx="510" cy="310" r="4" fill="#e0304e" opacity="0.6"/>
  <circle cx="485" cy="340" r="3" fill="#e0304e" opacity="0.5"/>
  <circle cx="430" cy="350" r="3" fill="#e0304e" opacity="0.5"/>
  <rect x="300" y="160" width="600" height="320" rx="16" stroke="rgba(255,255,255,0.04)" stroke-width="1" fill="none"/>
  <line x1="340" y1="180" x2="860" y2="180" stroke="rgba(255,255,255,0.04)" stroke-width="1"/>
  <line x1="340" y1="200" x2="860" y2="200" stroke="rgba(255,255,255,0.03)" stroke-width="1"/>
  <line x1="340" y1="440" x2="860" y2="440" stroke="rgba(255,255,255,0.04)" stroke-width="1"/>
  <line x1="340" y1="460" x2="860" y2="460" stroke="rgba(255,255,255,0.03)" stroke-width="1"/>
  <circle cx="480" cy="180" r="3" fill="rgba(100,47,127,0.3)"/>
  <circle cx="560" cy="180" r="3" fill="rgba(100,47,127,0.3)"/>
  <circle cx="640" cy="180" r="3" fill="rgba(100,47,127,0.3)"/>
  <circle cx="720" cy="180" r="3" fill="rgba(100,47,127,0.3)"/>
  <circle cx="500" cy="440" r="3" fill="rgba(100,47,127,0.3)"/>
  <circle cx="600" cy="440" r="3" fill="rgba(100,47,127,0.3)"/>
  <circle cx="700" cy="440" r="3" fill="rgba(100,47,127,0.3)"/>
  <rect x="700" y="220" width="120" height="30" rx="4" stroke="rgba(100,47,127,0.15)" stroke-width="1" fill="rgba(100,47,127,0.03)"/>
  <rect x="700" y="260" width="100" height="30" rx="4" stroke="rgba(224,48,78,0.12)" stroke-width="1" fill="rgba(224,48,78,0.03)"/>
  <rect x="700" y="300" width="140" height="30" rx="4" stroke="rgba(100,47,127,0.12)" stroke-width="1" fill="rgba(100,47,127,0.03)"/>
  <rect x="700" y="340" width="110" height="30" rx="4" stroke="rgba(224,48,78,0.1)" stroke-width="1" fill="rgba(224,48,78,0.03)"/>
  <rect x="700" y="380" width="130" height="30" rx="4" stroke="rgba(100,47,127,0.1)" stroke-width="1" fill="rgba(100,47,127,0.03)"/>
  <line x1="670" y1="235" x2="640" y2="310" stroke="rgba(224,48,78,0.08)" stroke-width="1"/>
  <line x1="670" y1="275" x2="640" y2="310" stroke="rgba(100,47,127,0.08)" stroke-width="1"/>
  <line x1="670" y1="315" x2="640" y2="310" stroke="rgba(224,48,78,0.08)" stroke-width="1"/>
  <line x1="670" y1="355" x2="640" y2="310" stroke="rgba(100,47,127,0.08)" stroke-width="1"/>
  <line x1="670" y1="395" x2="640" y2="310" stroke="rgba(224,48,78,0.08)" stroke-width="1"/>
  <text x="600" y="610" text-anchor="middle" font-family="system-ui" font-size="13" fill="rgba(255,255,255,0.15)">Future of AI in Indonesia</text>
</svg>
