<svg xmlns="http://www.w3.org/2000/svg" viewBox="0 0 1200 630" fill="none">
  <rect width="1200" height="630" fill="#0a0a0a"/>
  <circle cx="600" cy="315" r="160" stroke="rgba(224,48,78,0.15)" stroke-width="1" fill="none"/>
  <circle cx="600" cy="315" r="220" stroke="rgba(224,48,78,0.08)" stroke-width="1" fill="none"/>
  <circle cx="600" cy="315" r="280" stroke="rgba(100,47,127,0.06)" stroke-width="1" fill="none"/>
  <circle cx="600" cy="315" r="30" fill="rgba(224,48,78,0.3)"/>
  <circle cx="600" cy="315" r="12" fill="#e0304e"/>
  <line x1="600" y1="345" x2="600" y2="540" stroke="rgba(255,255,255,0.08)" stroke-width="1"/>
  <line x1="600" y1="285" x2="600" y2="90" stroke="rgba(255,255,255,0.08)" stroke-width="1"/>
  <line x1="570" y1="315" x2="380" y2="315" stroke="rgba(255,255,255,0.08)" stroke-width="1"/>
  <line x1="630" y1="315" x2="820" y2="315" stroke="rgba(255,255,255,0.08)" stroke-width="1"/>
  <line x1="578" y1="303" x2="440" y2="180" stroke="rgba(255,255,255,0.08)" stroke-width="1"/>
  <line x1="622" y1="327" x2="760" y2="450" stroke="rgba(255,255,255,0.08)" stroke-width="1"/>
  <circle cx="380" cy="315" r="24" stroke="rgba(100,47,127,0.4)" stroke-width="1.5" fill="rgba(100,47,127,0.1)"/>
  <circle cx="440" cy="180" r="24" stroke="rgba(224,48,78,0.3)" stroke-width="1.5" fill="rgba(224,48,78,0.08)"/>
  <circle cx="760" cy="450" r="24" stroke="rgba(100,47,127,0.3)" stroke-width="1.5" fill="rgba(100,47,127,0.08)"/>
  <circle cx="820" cy="315" r="24" stroke="rgba(224,48,78,0.3)" stroke-width="1.5" fill="rgba(224,48,78,0.08)"/>
  <circle cx="600" cy="540" r="20" stroke="rgba(100,47,127,0.3)" stroke-width="1.5" fill="rgba(100,47,127,0.08)"/>
  <circle cx="600" cy="90" r="20" stroke="rgba(224,48,78,0.3)" stroke-width="1.5" fill="rgba(224,48,78,0.08)"/>
  <rect x="365" y="300" width="30" height="30" rx="4" fill="none" stroke="rgba(100,47,127,0.5)" stroke-width="1"/>
  <path d="M372 315l8-8 6 6 10-12" stroke="rgba(100,47,127,0.6)" stroke-width="1.5" fill="none" stroke-linecap="round" stroke-linejoin="round"/>
  <rect x="805" y="300" width="30" height="30" rx="4" fill="none" stroke="rgba(224,48,78,0.4)" stroke-width="1"/>
  <path d="M815 310l6 6 10-12" stroke="rgba(224,48,78,0.5)" stroke-width="1.5" fill="none" stroke-linecap="round" stroke-linejoin="round"/>
  <rect x="585" y="525" width="30" height="30" rx="4" fill="none" stroke="rgba(100,47,127,0.4)" stroke-width="1"/>
  <path d="M592 540l8-8 6 6 10-12" stroke="rgba(100,47,127,0.5)" stroke-width="1.5" fill="none" stroke-linecap="round" stroke-linejoin="round"/>
  <rect x="425" y="165" width="30" height="30" rx="4" fill="none" stroke="rgba(224,48,78,0.4)" stroke-width="1"/>
  <path d="M432 180l8-8 6 6 10-12" stroke="rgba(224,48,78,0.5)" stroke-width="1.5" fill="none" stroke-linecap="round" stroke-linejoin="round"/>
  <rect x="745" y="435" width="30" height="30" rx="4" fill="none" stroke="rgba(100,47,127,0.4)" stroke-width="1"/>
  <path d="M752 450l8-8 6 6 10-12" stroke="rgba(100,47,127,0.5)" stroke-width="1.5" fill="none" stroke-linecap="round" stroke-linejoin="round"/>
  <rect x="585" y="75" width="30" height="30" rx="4" fill="none" stroke="rgba(224,48,78,0.4)" stroke-width="1"/>
  <path d="M592 90l8-8 6 6 10-12" stroke="rgba(224,48,78,0.5)" stroke-width="1.5" fill="none" stroke-linecap="round" stroke-linejoin="round"/>
  <ellipse cx="600" cy="315" rx="80" ry="30" fill="rgba(224,48,78,0.03)" stroke="rgba(224,48,78,0.1)" stroke-width="0.5"/>
  <text x="600" y="610" text-anchor="middle" font-family="system-ui" font-size="13" fill="rgba(255,255,255,0.15)">Open Source AI</text>
</svg>
